<svg width="1920" height="1080" viewBox="0 0 1920 1080" fill="none" xmlns="http://www.w3.org/2000/svg">
<path d="M636.57 710.32L624.526 671.279L619.684 668.851V667.829H638.163V668.851L632.81 671.279L640.393 697.093H640.648L651.735 667.51H654.921L666.072 697.093H666.391L673.974 671.279L668.558 668.851V667.829H682.831V668.851L678.562 671.088L666.327 710.32H663.205L651.735 680.736H651.353L639.628 710.32H636.57Z" fill="#777777"/>
<path d="M689.496 710V708.978L694.849 706.358V671.471L689.496 668.851V667.829H722.822V678.883H721.803L717.406 671.343H702.814V686.487H713.073L716.514 681.055H717.534V695.304H716.514L713.073 690.001H702.814V706.486H718.999L723.587 697.54H724.607V710H689.496Z" fill="#777777"/>
<path d="M732.313 710V708.978L736.264 706.805L752.768 667.51H757.228L773.541 706.677L777.874 708.978V710H759.522V708.978L765.066 706.741L760.542 695.624H745.249L740.788 706.741L746.077 708.978V710H732.313ZM746.714 692.109H759.076L752.895 676.838L746.714 692.109Z" fill="#777777"/>
<path d="M784.607 710V708.978L789.96 706.358V671.471L784.607 668.851V667.829H803.915V668.851L797.925 671.471V706.486H812.581L817.424 694.985H818.443V710H784.607Z" fill="#777777"/>
<path d="M833.201 710V708.978L839.828 706.358V671.343H830.206L825.427 681.375H824.407V667.829H863.277V681.375H862.258L857.479 671.343H847.857V706.358L854.42 708.978V710H833.201Z" fill="#777777"/>
<path d="M872.353 710V708.978L877.706 706.358V671.471L872.353 668.851V667.829H890.705V668.851L885.671 671.471V686.487H904.978V671.471L899.944 668.851V667.829H918.232V668.851L913.007 671.471V706.358L918.232 708.978V710H899.944V708.978L904.978 706.358V690.001H885.671V706.358L890.705 708.978V710H872.353Z" fill="#777777"/>
<path d="M945.517 710V708.978L949.468 706.805L965.971 667.51H970.432L986.745 706.677L991.078 708.978V710H972.726V708.978L978.27 706.741L973.745 695.624H958.452L953.992 706.741L959.281 708.978V710H945.517ZM959.918 692.109H972.28L966.099 676.838L959.918 692.109Z" fill="#777777"/>
<path d="M997.811 710V708.978L1003.16 706.358V671.471L997.811 668.851V667.829H1018.33C1023.21 667.829 1027.36 668.66 1030.75 670.321C1034.2 671.982 1036.81 674.261 1038.59 677.158C1040.42 680.054 1041.33 683.334 1041.33 686.998C1041.33 690.32 1040.74 693.387 1039.55 696.199C1038.4 699.01 1036.77 701.438 1034.64 703.483C1032.56 705.527 1030.08 707.125 1027.19 708.275C1024.34 709.425 1021.24 710 1017.88 710H997.811ZM1016.16 671.343H1011.13V706.486H1017.12C1020.47 706.486 1023.32 705.783 1025.66 704.377C1028.04 702.929 1029.84 700.906 1031.07 698.307C1032.35 695.666 1032.99 692.557 1032.99 688.978C1032.99 683.611 1031.54 679.33 1028.65 676.136C1025.81 672.941 1021.64 671.343 1016.16 671.343Z" fill="#777777"/>
<path d="M1066.95 710.32L1050.38 671.216L1045.92 668.851V667.829H1064.15V668.851L1058.79 671.343L1070.45 698.882H1070.77L1082.37 671.216L1077.08 668.851V667.829H1090.65V668.851L1087.02 670.832L1070.07 710.32H1066.95Z" fill="#777777"/>
<path d="M1099.06 710V708.978L1104.35 706.358V671.471L1099.06 668.851V667.829H1117.67V668.851L1112.38 671.471V706.358L1117.67 708.978V710H1099.06Z" fill="#777777"/>
<path d="M1141.52 710.639C1138.8 710.639 1136.42 710.383 1134.38 709.872C1132.38 709.319 1130.39 708.53 1128.39 707.508L1127.75 696.838H1128.9L1132.79 704.186C1135.42 706.358 1138.18 707.444 1141.07 707.444C1143.45 707.444 1145.36 706.869 1146.8 705.719C1148.25 704.526 1148.97 702.844 1148.97 700.671C1148.97 699.053 1148.59 697.753 1147.82 696.774C1147.1 695.751 1145.98 694.836 1144.45 694.026C1142.92 693.174 1140.92 692.195 1138.46 691.087C1135.48 689.639 1133.19 688.084 1131.58 686.423C1129.96 684.719 1129.15 682.44 1129.15 679.586C1129.15 677.967 1129.56 676.412 1130.36 674.922C1131.17 673.431 1132.23 672.11 1133.55 670.96C1134.91 669.81 1136.42 668.894 1138.07 668.213C1139.77 667.531 1141.52 667.19 1143.3 667.19C1145.42 667.19 1147.4 667.446 1149.23 667.957C1151.1 668.425 1152.88 669.107 1154.58 670.002L1155.22 680.225H1154.13L1150.25 673.196C1149.01 672.259 1147.87 671.556 1146.8 671.088C1145.74 670.619 1144.53 670.385 1143.17 670.385C1141.39 670.385 1139.9 670.981 1138.71 672.174C1137.57 673.367 1136.99 674.879 1136.99 676.711C1136.99 678.627 1137.63 680.182 1138.9 681.375C1140.18 682.525 1142.3 683.803 1145.28 685.209C1147.87 686.401 1149.99 687.573 1151.65 688.723C1153.3 689.873 1154.54 691.172 1155.34 692.621C1156.15 694.069 1156.55 695.858 1156.55 697.988C1156.55 700.032 1156.11 701.843 1155.22 703.419C1154.37 704.952 1153.2 706.273 1151.71 707.38C1150.27 708.445 1148.65 709.255 1146.87 709.808C1145.08 710.362 1143.3 710.639 1141.52 710.639Z" fill="#777777"/>
<path d="M1188.33 710.639C1185.23 710.639 1182.36 710.107 1179.73 709.042C1177.09 707.934 1174.8 706.422 1172.85 704.505C1170.89 702.546 1169.36 700.245 1168.26 697.604C1167.2 694.963 1166.67 692.067 1166.67 688.915C1166.67 685.762 1167.2 682.866 1168.26 680.225C1169.36 677.584 1170.89 675.305 1172.85 673.388C1174.8 671.429 1177.09 669.916 1179.73 668.851C1182.36 667.744 1185.23 667.19 1188.33 667.19C1191.47 667.19 1194.36 667.744 1197 668.851C1199.63 669.916 1201.92 671.429 1203.88 673.388C1205.83 675.305 1207.34 677.584 1208.4 680.225C1209.51 682.866 1210.06 685.762 1210.06 688.915C1210.06 692.067 1209.51 694.963 1208.4 697.604C1207.34 700.245 1205.83 702.546 1203.88 704.505C1201.92 706.422 1199.63 707.934 1197 709.042C1194.36 710.107 1191.47 710.639 1188.33 710.639ZM1189.48 707.38C1191.86 707.38 1193.94 706.699 1195.72 705.336C1197.55 703.973 1198.97 702.056 1199.99 699.585C1201.01 697.114 1201.52 694.197 1201.52 690.831C1201.52 686.7 1200.88 683.1 1199.61 680.033C1198.38 676.966 1196.68 674.602 1194.51 672.941C1192.39 671.237 1190.01 670.385 1187.37 670.385C1185.04 670.385 1182.94 671.067 1181.07 672.43C1179.24 673.75 1177.8 675.646 1176.73 678.116C1175.67 680.587 1175.14 683.505 1175.14 686.87C1175.14 691.002 1175.78 694.601 1177.05 697.668C1178.33 700.735 1180.05 703.121 1182.21 704.825C1184.42 706.528 1186.84 707.38 1189.48 707.38Z" fill="#777777"/>
<path d="M1217 710V708.978L1222.35 706.358V671.471L1217 668.851V667.829H1236.62C1241.09 667.829 1244.59 668.766 1247.14 670.641C1249.73 672.472 1251.03 675.007 1251.03 678.244C1251.03 680.63 1250.22 682.717 1248.6 684.506C1247.03 686.252 1244.95 687.615 1242.36 688.595L1254.28 706.55L1258.74 708.978V710H1246.82L1234.78 690.512H1230.32V706.294L1235.1 708.978V710H1217ZM1233.57 671.343H1230.32V687.253H1233.95C1236.58 687.253 1238.71 686.508 1240.32 685.017C1241.98 683.526 1242.81 681.588 1242.81 679.203C1242.81 676.732 1242 674.815 1240.38 673.452C1238.77 672.046 1236.5 671.343 1233.57 671.343Z" fill="#777777"/>
<path d="M1278.57 710.639C1275.85 710.639 1273.47 710.383 1271.43 709.872C1269.43 709.319 1267.44 708.53 1265.44 707.508L1264.8 696.838H1265.95L1269.84 704.186C1272.47 706.358 1275.23 707.444 1278.12 707.444C1280.5 707.444 1282.41 706.869 1283.85 705.719C1285.3 704.526 1286.02 702.844 1286.02 700.671C1286.02 699.053 1285.64 697.753 1284.87 696.774C1284.15 695.751 1283.03 694.836 1281.5 694.026C1279.97 693.174 1277.97 692.195 1275.51 691.087C1272.53 689.639 1270.24 688.084 1268.63 686.423C1267.01 684.719 1266.2 682.44 1266.2 679.586C1266.2 677.967 1266.61 676.412 1267.41 674.922C1268.22 673.431 1269.28 672.11 1270.6 670.96C1271.96 669.81 1273.47 668.894 1275.12 668.213C1276.82 667.531 1278.57 667.19 1280.35 667.19C1282.47 667.19 1284.45 667.446 1286.28 667.957C1288.14 668.425 1289.93 669.107 1291.63 670.002L1292.27 680.225H1291.18L1287.3 673.196C1286.06 672.259 1284.92 671.556 1283.85 671.088C1282.79 670.619 1281.58 670.385 1280.22 670.385C1278.44 670.385 1276.95 670.981 1275.76 672.174C1274.61 673.367 1274.04 674.879 1274.04 676.711C1274.04 678.627 1274.68 680.182 1275.95 681.375C1277.23 682.525 1279.35 683.803 1282.33 685.209C1284.92 686.401 1287.04 687.573 1288.7 688.723C1290.35 689.873 1291.59 691.172 1292.39 692.621C1293.2 694.069 1293.6 695.858 1293.6 697.988C1293.6 700.032 1293.16 701.843 1292.27 703.419C1291.42 704.952 1290.25 706.273 1288.76 707.38C1287.32 708.445 1285.7 709.255 1283.92 709.808C1282.13 710.362 1280.35 710.639 1278.57 710.639Z" fill="#777777"/>
<path d="M618 373.842C618 372.273 619.269 371 620.834 371H668.266C669.832 371 671.101 372.273 671.101 373.842V602.441C671.101 604.01 669.832 605.283 668.266 605.283H620.834C619.269 605.283 618 604.01 618 602.441V373.842Z" fill="#777777"/>
<path d="M701.191 420.696C701.191 400.072 692.342 383.767 687.157 375.985C685.81 373.963 687.258 371 689.684 371H735.297C736.119 371 736.895 371.353 737.402 372.003C740.871 376.45 754.292 395.297 754.292 420.696C754.292 458.701 736.592 459.768 736.592 488.141C736.592 516.514 754.292 517.582 754.292 555.586C754.292 580.986 740.871 599.833 737.402 604.28C736.895 604.93 736.119 605.283 735.297 605.283H689.684C687.258 605.283 685.81 602.32 687.157 600.298C692.342 592.516 701.191 576.211 701.191 555.586C701.191 517.643 683.491 515.776 683.491 488.141C683.491 460.507 701.191 458.64 701.191 420.696Z" fill="#777777"/>
<path d="M846.333 563.393C846.333 564.963 847.602 566.236 849.168 566.236H917.84C919.405 566.236 920.674 567.508 920.674 569.078V602.441C920.674 604.01 919.405 605.283 917.84 605.283H796.067C794.502 605.283 793.233 604.01 793.233 602.441V373.842C793.233 372.273 794.502 371 796.067 371H914.3C915.865 371 917.134 372.273 917.134 373.842V407.205C917.134 408.775 915.865 410.047 914.3 410.047H849.168C847.602 410.047 846.333 411.32 846.333 412.889V464.001C846.333 465.57 847.602 466.843 849.168 466.843H903.68C905.245 466.843 906.514 468.115 906.514 469.685V503.048C906.514 504.618 905.245 505.89 903.68 505.89H849.168C847.602 505.89 846.333 507.163 846.333 508.732V563.393Z" fill="#777777"/>
<path d="M958.909 605.283C957.344 605.283 956.075 604.01 956.075 602.441V373.842C956.075 372.273 957.344 371 958.909 371H1006.34C1007.91 371 1009.18 372.273 1009.18 373.842V602.441C1009.18 604.01 1007.91 605.283 1006.34 605.283H958.909Z" fill="#777777"/>
<path fill-rule="evenodd" clip-rule="evenodd" d="M1026.63 445.742L1045.79 373.114C1046.12 371.868 1047.24 371 1048.53 371L1095.84 371C1097.68 371 1099.03 372.724 1098.59 374.513L1078.51 457.099C1074.06 477.553 1074.06 498.73 1078.51 519.184L1098.59 601.77C1099.03 603.559 1097.68 605.283 1095.84 605.283H1048.53C1047.24 605.283 1046.12 604.415 1045.79 603.169L1026.63 530.541C1020.55 502.604 1020.55 473.679 1026.63 445.742Z" fill="#777777"/>
<path d="M1244.45 605.283C1243.07 605.283 1241.88 604.278 1241.66 602.908L1235.37 565.061C1235.14 563.69 1233.96 562.686 1232.57 562.686H1184.18C1182.83 562.686 1181.67 563.63 1181.4 564.948L1173.49 603.02C1173.22 604.338 1172.06 605.283 1170.72 605.283H1123.52C1121.69 605.283 1120.34 603.56 1120.77 601.771L1176.03 373.173C1176.34 371.898 1177.48 371 1178.79 371H1238.04C1239.35 371 1240.49 371.908 1240.79 373.192L1294.33 601.791C1294.75 603.574 1293.4 605.283 1291.57 605.283H1244.45ZM1189.61 522.024C1189.27 523.78 1190.61 525.414 1192.4 525.414H1222.74C1224.5 525.414 1225.84 523.814 1225.53 522.072L1209.75 433.483C1209.47 431.935 1207.27 431.916 1206.96 433.459L1189.61 522.024Z" fill="#777777"/>
</svg>
