<svg width="1920" height="1080" viewBox="0 0 1920 1080" fill="none" xmlns="http://www.w3.org/2000/svg">
<path d="M1078.95 494.773C1065.08 494.773 1052.47 500.257 1043.17 509.173V467.801C1043.17 463.392 1039.59 459.814 1035.18 459.814C1030.77 459.814 1027.2 463.392 1027.2 467.801V590.305C1027.2 594.717 1030.77 598.292 1035.18 598.292C1039.59 598.292 1043.17 594.715 1043.17 590.305V546.531C1043.17 526.799 1059.22 510.746 1078.95 510.746C1098.69 510.746 1114.74 526.801 1114.74 546.531V590.305C1114.74 594.717 1118.32 598.292 1122.73 598.292C1127.14 598.292 1130.71 594.715 1130.71 590.305V546.531C1130.71 517.992 1107.5 494.773 1078.95 494.773Z" fill="#777777"/>
<path d="M1007.1 459.814C1002.69 459.814 999.115 463.392 999.115 467.801V509.173C989.814 500.259 977.198 494.773 963.327 494.773C934.788 494.773 911.566 517.992 911.566 546.531C911.566 575.072 934.788 598.294 963.327 598.294C991.866 598.294 1015.09 575.075 1015.09 546.531V467.801C1015.09 463.392 1011.51 459.814 1007.1 459.814ZM963.327 582.321C943.592 582.321 927.539 566.266 927.539 546.531C927.539 526.798 943.592 510.745 963.327 510.745C983.062 510.745 999.115 526.801 999.115 546.531C999.115 566.266 983.06 582.321 963.327 582.321Z" fill="#777777"/>
<path d="M559.919 494.773C546.048 494.773 533.432 500.257 524.131 509.173V467.801C524.131 463.392 520.554 459.814 516.145 459.814C511.733 459.814 508.158 463.392 508.158 467.801V546.531C508.158 575.072 531.378 598.294 559.919 598.294C588.458 598.294 611.68 575.075 611.68 546.531C611.68 517.992 588.46 494.773 559.919 494.773ZM559.919 582.321C540.184 582.321 524.131 566.266 524.131 546.531C524.131 526.798 540.184 510.745 559.919 510.745C579.654 510.745 595.707 526.801 595.707 546.531C595.707 566.266 579.654 582.321 559.919 582.321Z" fill="#777777"/>
<path d="M732.509 494.773C703.968 494.773 680.748 517.992 680.748 546.531C680.748 575.073 703.968 598.295 732.509 598.295C746.382 598.295 758.996 592.81 768.297 583.891V590.306C768.297 594.718 771.872 598.292 776.284 598.292C780.693 598.292 784.27 594.715 784.27 590.306V546.531C784.27 517.992 761.05 494.773 732.509 494.773ZM732.509 582.322C712.777 582.322 696.721 566.266 696.721 546.531C696.721 526.799 712.777 510.746 732.509 510.746C752.244 510.746 768.297 526.801 768.297 546.531C768.3 566.266 752.244 582.322 732.509 582.322Z" fill="#777777"/>
<path d="M848.148 494.773C819.606 494.773 796.387 517.992 796.387 546.531V590.306C796.387 594.717 799.964 598.292 804.373 598.292C808.785 598.292 812.36 594.715 812.36 590.306V546.531C812.36 526.799 828.413 510.746 848.148 510.746C867.88 510.746 883.933 526.801 883.933 546.531V590.306C883.933 594.717 887.51 598.292 891.92 598.292C896.329 598.292 899.906 594.715 899.906 590.306V546.531C899.906 517.992 876.687 494.773 848.148 494.773Z" fill="#777777"/>
<path d="M675.557 494.773C647.018 494.773 623.799 517.992 623.799 546.531V590.306C623.799 594.717 627.373 598.292 631.785 598.292C636.197 598.292 639.772 594.715 639.772 590.306V546.531C639.772 526.799 655.825 510.746 675.557 510.746C679.969 510.746 683.544 507.171 683.544 502.759C683.544 498.347 679.969 494.773 675.557 494.773Z" fill="#777777"/>
<path d="M1409.02 510.745C1413.42 510.745 1417 507.171 1417 502.759C1417 498.347 1413.42 494.773 1409.02 494.773H1390.23V467.801C1390.23 463.392 1386.66 459.814 1382.25 459.814C1377.84 459.814 1374.26 463.392 1374.26 467.801V572.823C1374.26 584.771 1382.54 594.822 1393.65 597.554C1394.67 598.024 1395.8 598.294 1396.99 598.294H1406.28C1410.69 598.294 1414.26 594.717 1414.26 590.308C1414.26 585.898 1410.69 582.324 1406.28 582.324H1399.73C1394.49 582.324 1390.23 578.062 1390.23 572.825V510.748H1409.02V510.745Z" fill="#777777"/>
<path d="M1252.46 583.691C1246.36 583.691 1241.4 586.539 1241.4 596.252C1241.4 596.575 1241.41 596.902 1241.42 597.222C1241.51 601.544 1242.22 605.864 1243.76 610.186C1244.57 612.508 1245.65 614.827 1247.03 617.15C1247.4 617.73 1247.74 618.312 1248.13 618.892C1248.54 619.472 1248.92 620.052 1249.38 620.632C1249.81 621.212 1250.29 621.794 1250.79 622.371L1251.6 623.244C1251.6 623.244 1252.02 623.676 1252.46 623.676C1252.9 623.676 1253.33 623.244 1253.33 623.244L1254.13 622.371C1254.63 621.794 1255.11 621.212 1255.54 620.632C1256 620.052 1256.38 619.472 1256.79 618.892C1257.18 618.312 1257.52 617.73 1257.89 617.15C1259.27 614.827 1260.34 612.508 1261.16 610.186C1262.7 605.864 1263.41 601.544 1263.5 597.222C1263.51 596.902 1263.52 596.575 1263.52 596.252C1263.52 586.539 1258.57 583.691 1252.46 583.691Z" fill="#777777"/>
<path d="M1194.62 494.75L1194.21 494.76C1187.11 495.13 1164.94 494.333 1156.38 486.094C1153.21 483.034 1148.15 483.129 1145.09 486.306C1142.03 489.483 1142.13 494.54 1145.31 497.6C1160.06 511.805 1190.36 510.933 1194.81 510.723C1214.47 510.826 1230.43 526.851 1230.43 546.534C1230.43 566.279 1214.37 582.344 1194.62 582.344C1174.87 582.344 1158.81 566.279 1158.81 546.534C1158.81 538.842 1161.21 531.513 1165.75 525.341C1168.37 521.789 1167.6 516.79 1164.05 514.175C1160.5 511.563 1155.5 512.323 1152.88 515.877C1146.31 524.811 1142.83 535.413 1142.83 546.534C1142.83 575.087 1166.06 598.317 1194.62 598.317C1223.17 598.317 1246.4 575.087 1246.4 546.534C1246.4 517.98 1223.17 494.75 1194.62 494.75Z" fill="#777777"/>
<path d="M1340.94 513.953C1337.38 516.565 1336.62 521.564 1339.23 525.119C1343.77 531.29 1346.17 538.62 1346.17 546.311C1346.17 566.056 1330.11 582.122 1310.36 582.122C1290.62 582.122 1274.55 566.056 1274.55 546.311C1274.55 526.626 1290.52 510.603 1310.18 510.501C1314.62 510.711 1344.92 511.583 1359.68 497.377C1362.85 494.318 1362.95 489.261 1359.89 486.084C1356.83 482.907 1351.78 482.812 1348.6 485.871C1340.09 494.065 1317.88 494.893 1310.78 494.54L1310.36 494.528C1281.81 494.528 1258.58 517.757 1258.58 546.311C1258.58 574.865 1281.81 598.094 1310.36 598.094C1338.92 598.094 1362.15 574.865 1362.15 546.311C1362.15 535.19 1358.67 524.589 1352.1 515.653C1349.49 512.1 1344.49 511.34 1340.94 513.953Z" fill="#777777"/>
</svg>
