<svg width="1920" height="1080" viewBox="0 0 1920 1080" fill="none" xmlns="http://www.w3.org/2000/svg">
<path fill-rule="evenodd" clip-rule="evenodd" d="M951.002 266.468V248H969.002V266.468H987.002V284.468H969.002V307.953C972.672 307.024 975.795 305.555 979.361 303.866L979.435 303.831C986.009 300.718 993.859 297 1006.52 297C1018.85 297 1026.26 300.577 1032.52 303.605C1032.72 303.702 1032.92 303.798 1033.12 303.894C1038.83 306.648 1043.93 309 1053.77 309C1063.61 309 1068.71 306.648 1074.42 303.894C1074.62 303.798 1074.82 303.702 1075.02 303.605C1081.29 300.577 1088.69 297 1101.02 297C1113.56 297 1121.51 300.687 1128.17 303.775L1128.3 303.836C1134.55 306.736 1139.51 309 1148 309V327C1135.46 327 1127.51 323.312 1120.85 320.225L1120.72 320.164C1114.47 317.264 1109.51 315 1101.02 315C1092.82 315 1088.49 317.091 1082.66 319.905L1082.24 320.106C1075.51 323.352 1067.55 327 1053.77 327C1039.99 327 1032.03 323.352 1025.3 320.106L1024.88 319.905C1019.05 317.091 1014.72 315 1006.52 315C997.987 315 993.145 317.255 987.065 320.134L986.926 320.2C980.383 323.299 972.568 327 960.002 327C947.424 327 939.577 323.293 933.01 320.191L932.897 320.138C926.784 317.25 921.947 315 913.48 315C905.283 315 900.952 317.091 895.12 319.905C894.982 319.972 894.843 320.039 894.703 320.106C887.975 323.352 880.009 327 866.233 327C852.457 327 844.491 323.352 837.762 320.106C837.622 320.039 837.483 319.972 837.345 319.905C831.514 317.091 827.182 315 818.985 315C810.427 315 805.459 317.268 799.24 320.161L799.082 320.234C792.451 323.318 784.536 327 772.002 327L772.002 309C780.485 309 785.412 306.74 791.649 303.839L791.74 303.797C798.403 300.698 806.354 297 818.985 297C831.317 297 838.718 300.577 844.984 303.605C845.184 303.702 845.383 303.798 845.581 303.894C851.294 306.648 856.393 309 866.233 309C876.072 309 881.172 306.648 886.884 303.894C887.082 303.798 887.281 303.702 887.482 303.605C893.747 300.577 901.149 297 913.48 297C926.058 297 933.906 300.707 940.472 303.809L940.585 303.862C944.166 305.554 947.31 307.027 951.002 307.957V284.468H933.002V266.468H951.002ZM1148 341V359H772.002V341H1148ZM772.002 373H1148C1148 456.503 1148 587.895 1148 648.011L1148 648.068C1148 648.102 1148 648.146 1148 648.2C1148 648.309 1148 648.459 1148 648.651C1147.99 649.033 1147.98 649.577 1147.95 650.272C1147.91 651.662 1147.81 653.659 1147.63 656.175C1147.26 661.205 1146.53 668.33 1145.08 676.856C1142.18 693.866 1136.36 716.679 1124.64 739.598C1112.9 762.556 1095.16 785.758 1068.4 803.196C1041.6 820.664 1006.29 832 960.002 832C913.718 832 878.404 820.664 851.603 803.196C824.848 785.758 807.105 762.556 795.364 739.598C783.643 716.679 777.827 693.866 774.927 676.856C773.473 668.33 772.743 661.205 772.375 656.175C772.192 653.659 772.098 651.662 772.051 650.272C772.027 649.577 772.015 649.033 772.009 648.651C772.005 648.459 772.004 648.309 772.003 648.2C772.002 648.146 772.002 648.102 772.002 648.068L772.002 648.026L772.002 648.011C771.945 587.901 772.002 456.498 772.002 373ZM790.002 647.993L790.002 648.054C790.003 648.113 790.004 648.214 790.006 648.354C790.011 648.634 790.02 649.072 790.04 649.659C790.08 650.832 790.162 652.595 790.328 654.864C790.659 659.404 791.327 665.951 792.671 673.831C794.869 686.726 798.85 703.039 806.029 719.924C820.11 719.551 828.835 715.292 838.84 710.374L838.939 710.325C849.814 704.979 862.075 698.951 881.783 698.951C900.948 698.951 912.268 704.732 922.472 709.944C922.792 710.108 923.111 710.27 923.429 710.433C933.219 715.424 942.533 719.951 960.002 719.951C977.47 719.951 986.785 715.424 996.575 710.433C996.893 710.27 997.212 710.108 997.532 709.944C1007.74 704.732 1019.06 698.951 1038.22 698.951C1057.79 698.951 1070.04 704.961 1080.91 710.292L1081.07 710.37C1091.1 715.288 1099.88 719.551 1113.98 719.924C1121.15 703.039 1125.13 686.726 1127.33 673.831C1128.68 665.951 1129.34 659.404 1129.68 654.864C1129.84 652.595 1129.92 650.832 1129.96 649.659C1129.98 649.072 1129.99 648.634 1130 648.354C1130 648.214 1130 648.113 1130 648.054L1130 648V391H790.002L790.002 647.993ZM1105.44 737.326C1091.75 735.653 1082.08 730.91 1073.31 726.609L1073.15 726.531C1062.65 721.381 1053.51 716.951 1038.22 716.951C1023.4 716.951 1015.29 721.089 1005.5 726.088C1005.25 726.215 1005 726.341 1004.75 726.469C993.945 731.978 981.629 737.951 960.002 737.951C938.374 737.951 926.059 731.978 915.253 726.469C915.003 726.341 914.754 726.214 914.507 726.088C904.71 721.089 896.601 716.951 881.783 716.951C866.375 716.951 857.239 721.386 846.781 726.527L846.577 726.628C837.842 730.922 828.218 735.654 814.567 737.325C821.931 750.417 831.467 763.223 843.829 774.497C844.009 774.479 844.191 774.466 844.374 774.459C857.917 773.895 866.391 769.74 876.348 764.859C876.657 764.708 876.967 764.555 877.278 764.403C887.972 759.166 900.069 753.522 919.189 753.522C938.382 753.522 949.718 759.301 959.941 764.513C960.262 764.677 960.581 764.839 960.899 765.001C970.708 769.993 980.046 774.522 997.556 774.522C1015.06 774.522 1024.4 769.993 1034.21 765.001C1034.53 764.839 1034.85 764.677 1035.17 764.513C1045.39 759.302 1056.73 753.522 1075.92 753.522C1082.53 753.522 1088.35 754.201 1093.64 755.348C1098.09 749.487 1102 743.437 1105.44 737.326ZM1079.26 771.596C1078.18 771.548 1077.07 771.522 1075.92 771.522C1061.07 771.522 1052.94 775.663 1043.12 780.663C1042.88 780.789 1042.63 780.916 1042.38 781.044C1031.55 786.552 1019.22 792.522 997.556 792.522C975.895 792.522 963.561 786.552 952.736 781.044C952.485 780.916 952.236 780.789 951.987 780.663C942.172 775.663 934.042 771.522 919.189 771.522C904.266 771.522 895.189 775.675 885.195 780.569C884.762 780.78 884.328 780.994 883.891 781.208C877.95 784.126 871.518 787.286 863.634 789.523C886.948 804.101 918.119 814 960.002 814C1003.22 814 1035.03 803.461 1058.57 788.116C1066.26 783.103 1073.13 777.539 1079.26 771.596Z" fill="#777777"/>
<path d="M891.63 498.328H902.83V495.752C902.83 482.76 895.326 475.48 884.126 475.48C878.974 475.48 874.27 476.712 870.574 480.296C867.326 483.432 864.75 488.36 864.75 494.856V497.096C864.75 501.016 864.862 504.936 866.43 508.52C868.67 513.784 872.702 515.8 876.734 517.256L884.91 520.168C886.142 520.616 888.83 521.624 890.286 523.64C891.742 525.656 892.078 529.016 892.078 531.704V534.616C892.078 536.968 891.966 540.216 890.286 542.344C889.39 543.464 887.486 545.144 883.23 545.144C881.774 545.144 878.974 544.92 877.07 542.568C875.502 540.552 875.278 537.416 875.278 535.624V533.496H864.078V536.072C864.078 537.08 864.078 544.472 867.662 549.288C870.238 552.872 875.39 556.12 883.342 556.12C889.838 556.12 894.99 553.992 897.902 550.968C901.15 547.608 903.278 541.56 903.278 533.608V530.92C903.278 525.992 902.942 521.512 899.918 517.368C897.006 513.336 893.086 511.88 889.726 510.648L882.894 508.184C881.214 507.512 878.974 506.616 877.742 504.712C876.286 502.584 875.95 498.664 875.95 496.536C875.95 493.96 876.174 490.824 878.302 488.584C880.094 486.792 882.222 486.456 883.79 486.456C887.038 486.456 888.718 487.8 889.726 489.032C891.518 491.272 891.63 494.52 891.63 496.2V498.328Z" fill="#777777"/>
<path d="M1017.79 663.021H1028.99V631.997H1035.6C1040.42 631.997 1046.46 631.101 1051.06 625.837C1055.42 620.797 1055.87 614.301 1055.87 609.933V607.693C1055.87 601.869 1055.31 595.037 1050.16 589.773C1045.23 584.845 1039.3 584.621 1034.48 584.621H1017.79V663.021ZM1028.99 594.701H1032.91C1035.94 594.701 1039.07 594.589 1041.65 596.717C1044.78 599.293 1044.67 603.101 1044.67 605.789V610.941C1044.67 613.741 1044.9 616.429 1042.54 619.005C1040.19 621.581 1037.17 621.917 1035.04 621.917H1028.99V594.701Z" fill="#777777"/>
<path d="M924.793 722.445C930.117 718.584 934.897 713.532 938.396 706.952C945.181 694.191 951.302 681.141 955.714 671.317C957.925 666.396 959.715 662.264 960.955 659.356C962.371 656.038 963.736 652.7 965.102 649.361L965.103 649.36C965.398 648.637 965.694 647.913 965.991 647.19L934.192 630.283L1021.16 466.722C1021.16 466.722 1021.16 466.716 1021.17 466.705C1021.35 466.395 1024.01 461.76 1028.72 458.408C1031.14 456.687 1033.89 455.453 1037.01 455.142C1040.05 454.839 1044.09 455.352 1049.27 458.107C1056.23 461.807 1058.92 465.994 1060.03 469.403C1061.24 473.09 1060.95 476.968 1060.17 480.226C1059.62 482.482 1058 484.915 1054.96 487.937L1038.74 504.057C1028.38 514.359 1027.9 530.977 1037.66 541.858L1037.98 542.221C1041.3 545.922 1046.99 546.232 1050.69 542.914C1054.39 539.596 1054.7 533.906 1051.38 530.205L1051.06 529.842C1047.7 526.094 1047.86 520.372 1051.43 516.824L1067.65 500.704C1071.46 496.914 1075.94 491.588 1077.66 484.449C1078.91 479.273 1079.74 471.753 1077.14 463.806C1074.45 455.581 1068.41 447.896 1057.72 442.214C1049.76 437.98 1042.19 436.537 1035.22 437.231C1028.32 437.919 1022.65 440.637 1018.28 443.742C1009.79 449.786 1005.49 457.842 1005.28 458.248L918.299 621.832L886.501 604.925C886.501 604.925 883 610.077 879.231 615.903C877.514 618.557 875.09 622.352 872.246 626.936C866.568 636.088 859.173 648.46 852.388 661.221C843.95 677.089 847.047 694.166 851.982 706.528C852.927 708.895 853.962 711.15 855.041 713.266C860.466 711.349 866.399 709.849 873.372 709.21C871.742 706.527 870.092 703.344 868.699 699.854C864.68 689.788 863.404 678.844 868.281 669.671C874.81 657.391 881.981 645.388 887.542 636.425C889.421 633.396 891.11 630.723 892.523 628.513L909.031 637.291L905.12 644.647C902.475 649.62 906.123 660.884 907.375 661.549C908.627 662.215 920.004 658.941 922.648 653.967L926.56 646.611L943.068 655.388C942.026 657.795 940.755 660.691 939.294 663.942C934.973 673.564 929.032 686.221 922.502 698.501C918.783 705.496 912.208 710.101 904.598 712.911C909.325 714.661 913.526 716.803 917.775 718.97C920.07 720.14 922.379 721.318 924.793 722.445Z" fill="#777777"/>
</svg>
